<svg id="visual" viewBox="0 0 900 600" width="900" height="600" xmlns="http://www.w3.org/2000/svg" xmlns:xlink="http://www.w3.org/1999/xlink" version="1.1"><rect x="0" y="0" width="900" height="600" fill="#FEEFE5"></rect><defs><linearGradient id="grad1_0" x1="33.3%" y1="0%" x2="100%" y2="100%"><stop offset="20%" stop-color="#feefe5" stop-opacity="1"></stop><stop offset="80%" stop-color="#feefe5" stop-opacity="1"></stop></linearGradient></defs><defs><linearGradient id="grad2_0" x1="0%" y1="0%" x2="66.7%" y2="100%"><stop offset="20%" stop-color="#feefe5" stop-opacity="1"></stop><stop offset="80%" stop-color="#feefe5" stop-opacity="1"></stop></linearGradient></defs><g transform="translate(900, 0)"><path d="M0 486.7C-65.6 482.8 -131.1 478.8 -186.3 449.7C-241.4 420.6 -286.1 366.5 -313.2 313.2C-340.4 260 -350 207.8 -376 155.8C-402 103.7 -444.4 51.9 -486.7 0L0 0Z" fill="#FF7B3D"></path></g><g transform="translate(0, 600)"><path d="M0 -486.7C69.3 -486.1 138.7 -485.4 186.3 -449.7C233.9 -414 259.8 -343.1 292 -292C324.3 -240.9 362.8 -209.6 396.3 -164.2C429.9 -118.8 458.3 -59.4 486.7 0L0 0Z" fill="#FF7B3D"></path></g></svg>